<svg xmlns="http://www.w3.org/2000/svg" viewBox="0 0 120 140"><ellipse fill="#68CAD5" cx="56.6" cy="55.2" rx="38.1" ry="37.8"/><path fill="#55C4C6" d="M47.4 90.2c3.1.9 6.4 1.3 9.8.9 3.5-.4 7-1.3 10.4-2.3 3.7-1 7.2-2.8 10.6-4.6 4.2-2.4 9.6-4.9 11.2-9.9 1.1-3.4.3-7.1 1.6-10.4 1.3-3.4 3.4-6.5 3.1-10.3-.3-4.5-3.2-8.4-4.6-12.6-2.2-6.3-5.1-10.7-10.1-15.3-2.9-2.7-7.8-4.6-11.7-5.4-2.4-.4-4.8-.2-7.2-.8-7.5-2.1-18.1 2.1-24 6.7-2 1.6-3.7 3.6-5.6 5.3-2.4 2-3.7 4.7-4.8 7.5-2.3 5.6-7.5 8.9-7.1 15.5.3 3.9 2 7.4 3 11.2.7 2.8 1.1 5.6 3 7.9 5.8 7 13.5 14 22.4 16.6z"/><path fill="#86D1D4" d="M42 27.6l16.3-4.2 31.8 31.8-4.3 16.1L42 83 30.3 71.2z"/><path fill="#AFDED7" d="M46.9 36.9l11.4-3 18.6 10.7v21.7l-8 8H47.3L36.4 55.6z"/><path fill="#CCEAF0" d="M48 49.3l10.3-5.8 10.2 5.8v11.8L58.3 67 48 61.1z"/><ellipse fill="#CCEAF0" cx="42.3" cy="28.1" rx="2.7" ry="2.7"/><ellipse fill="#CCEAF0" cx="26.3" cy="17.4" rx="2.7" ry="2.7"/><ellipse fill="#CCEAF0" cx="77.4" cy="45" rx="2.7" ry="2.7"/><ellipse fill="#CCEAF0" cx="38.7" cy="69.4" rx="2.7" ry="2.7"/><ellipse fill="#CCEAF0" cx="41.5" cy="115.7" rx="2.8" ry="2.8"/><g fill="#FFF"><path d="M34.3 102.8c0 .5-.1.8-.2 1.2-.1.3-.3.6-.4.9-.2.3-.3.6-.4.9-.1.3-.2.7-.2 1.1 0 .3 0 .6.1.8.1.2.2.5.3.8.1.3.2.5.3.8.1.3.1.6.1 1 0 .6-.1 1.1-.4 1.6-.2.5-.6 1-1.1 1.3-.5.4-1.1.7-1.7.9-.7.2-1.5.3-2.4.3-.7 0-1.4-.1-1.9-.2-.6-.1-1.1-.4-1.5-.6-.4-.3-.7-.6-.9-.9-.2-.4-.3-.7-.3-1.1 0-.6.2-1.1.5-1.6.3-.4.7-.7 1.2-1 .5-.3 1.1-.4 1.7-.5.6-.1 1.2-.2 1.8-.2h.9c.3 0 .6.1.8.1v-.3-.3c0-.4.1-.8.3-1.3-.3.2-.6.3-1 .4-.4.1-.8.2-1.3.2-.4 0-.8-.1-1.2-.2-.4-.1-.7-.3-1-.6-.3-.3-.5-.6-.7-1.1-.2-.4-.3-.9-.3-1.5 0-.5.1-1.1.3-1.6.2-.5.5-1 .9-1.4.4-.4.9-.7 1.6-1 .6-.2 1.3-.4 2.2-.4.4 0 .8 0 1.2.1.4.1.7.2 1.1.4H36l-.2 1c-.1.4-.3.7-.6.8l-.9.3v.9zm-3.3 7.5v-.1-.1c-.4-.1-.7-.1-1-.1h-.8c-.4 0-.7 0-1 .1-.3.1-.5.1-.7.2-.2.1-.3.2-.4.3-.1.1-.1.3-.1.4 0 .4.1.6.4.8.3.2.7.3 1.4.3.3 0 .6 0 .9-.1.3-.1.5-.2.7-.4.2-.2.4-.3.5-.5 0-.3.1-.5.1-.8zm-1.3-5.1c.3 0 .5-.1.7-.2.2-.1.4-.3.5-.5.1-.2.2-.5.3-.7.1-.3.1-.5.1-.8 0-.5-.1-.8-.3-1.1-.2-.3-.5-.4-.9-.4-.3 0-.5.1-.7.2-.2.1-.4.3-.5.5-.1.2-.2.4-.3.7-.1.3-.1.6-.1.8 0 .5.1.8.3 1.1.2.2.5.4.9.4zM35.8 110.5l1.4-11h1.7c.3 0 .6.1.8.2.2.2.3.4.3.8v1.3c.4-.8.9-1.3 1.4-1.7.5-.4 1-.6 1.6-.6.3 0 .6.1.9.2l-.6 3.1c-.4-.2-.7-.2-1-.2-.6 0-1 .2-1.5.7-.4.5-.8 1.3-1 2.4l-.6 5h-3.4zM47.8 110.7c-.6 0-1.2-.1-1.7-.3-.5-.2-1-.5-1.4-.9-.4-.4-.7-.9-.9-1.5-.2-.6-.3-1.2-.3-2 0-1 .2-1.9.5-2.7.3-.8.8-1.5 1.3-2.1.6-.6 1.2-1.1 1.9-1.4.7-.3 1.5-.5 2.3-.5.6 0 1.2.1 1.7.3.5.2 1 .5 1.4.9.4.4.7.9.9 1.5.2.6.3 1.2.3 2 0 1-.2 1.9-.5 2.7-.3.8-.8 1.5-1.3 2.1-.6.6-1.2 1.1-1.9 1.4-.7.3-1.5.5-2.3.5zm.3-2.5c.4 0 .7-.1 1-.3.3-.2.5-.5.7-.9.2-.4.4-.8.5-1.4.1-.5.2-1.1.2-1.6 0-.8-.1-1.4-.3-1.7-.2-.3-.6-.5-1.1-.5-.4 0-.7.1-1 .3-.3.2-.5.5-.7.9-.2.4-.4.8-.5 1.4-.1.5-.2 1.1-.2 1.6 0 .8.1 1.4.3 1.7.3.3.6.5 1.1.5zM58.9 110.7c-.6 0-1.2-.1-1.7-.3-.5-.2-1-.5-1.4-.9-.4-.4-.7-.9-.9-1.5-.2-.6-.3-1.2-.3-2 0-1 .2-1.9.5-2.7.3-.8.8-1.5 1.3-2.1.6-.6 1.2-1.1 1.9-1.4.7-.3 1.5-.5 2.3-.5.6 0 1.2.1 1.7.3.5.2 1 .5 1.4.9.4.4.7.9.9 1.5.2.6.3 1.2.3 2 0 1-.2 1.9-.5 2.7-.3.8-.8 1.5-1.3 2.1-.5.6-1.2 1.1-1.9 1.4-.7.3-1.5.5-2.3.5zm.3-2.5c.4 0 .7-.1 1-.3.3-.2.5-.5.7-.9.2-.4.4-.8.5-1.4.1-.5.2-1.1.2-1.6 0-.8-.1-1.4-.3-1.7-.2-.3-.6-.5-1.1-.5-.4 0-.7.1-1 .3-.3.2-.5.5-.7.9-.2.4-.4.8-.5 1.4-.1.5-.2 1.1-.2 1.6 0 .8.1 1.4.3 1.7.3.3.6.5 1.1.5zM65.9 99.5h2.7c.2 0 .4.1.5.2.1.1.2.2.2.4l.7 5c.1.4.1.8.2 1.2 0 .4.1.8.1 1.2.1-.4.3-.8.4-1.2.2-.4.3-.8.5-1.2l2-5c.1-.2.2-.3.3-.4.2-.1.3-.2.5-.2h2.6l-5.4 11h-2.8l-2.5-11zM86.1 102.2c0 .5-.1 1-.3 1.4-.2.4-.5.8-1 1.1-.5.3-1.2.6-2 .8-.8.2-1.9.4-3.2.5 0 .8.2 1.3.5 1.7.3.3.8.5 1.4.5.3 0 .5 0 .8-.1.2 0 .4-.1.6-.2.2-.1.3-.2.4-.2.1-.1.3-.2.4-.2.1-.1.2-.1.4-.2.1 0 .3-.1.4-.1.1 0 .2 0 .3.1.1.1.2.1.3.2l.9 1c-.4.4-.8.7-1.2 1-.4.3-.8.5-1.2.7-.4.2-.8.3-1.3.4-.4.1-.9.1-1.5.1-.7 0-1.3-.1-1.8-.3-.5-.2-1-.5-1.4-.9-.4-.4-.7-.9-.9-1.5-.2-.6-.3-1.2-.3-1.9 0-.6.1-1.2.2-1.7.1-.6.3-1.1.6-1.6.2-.5.5-.9.9-1.4.4-.4.8-.8 1.2-1.1.4-.3.9-.5 1.5-.7.5-.2 1.1-.2 1.7-.2.6 0 1.1.1 1.6.3.5.2.8.4 1.2.7.3.3.6.6.7.9 0 .2.1.5.1.9zm-3.9-.7c-.6 0-1 .2-1.4.7-.4.4-.7 1-.9 1.8.7-.1 1.3-.2 1.7-.3.4-.1.8-.2 1-.4.2-.1.4-.3.5-.4.1-.2.1-.3.1-.5s-.1-.4-.2-.5c-.3-.3-.5-.4-.8-.4z"/></g><g fill="#FFF"><path d="M54.8 125.3V114h1.6c.2 0 .3 0 .4.1.1.1.2.2.2.3l.2.6.5-.5c.2-.1.4-.3.6-.4.2-.1.5-.2.7-.3.3-.1.5-.1.8-.1.5 0 .9.1 1.2.3.4.2.7.5 1 .9.3.4.5.8.7 1.4.2.5.2 1.2.2 1.8 0 .6-.1 1.2-.3 1.8-.2.5-.4 1-.8 1.4-.3.4-.7.7-1.2.9-.5.2-1 .3-1.5.3s-.8-.1-1.1-.2c-.3-.1-.6-.3-.8-.5v3.3h-2.4zm4.3-9.5c-.2 0-.4 0-.5.1-.2 0-.3.1-.4.2-.1.1-.2.1-.4.3l-.3.3v3.6c.2.2.4.4.6.5.2.1.5.1.7.1.2 0 .5 0 .7-.1.2-.1.4-.2.5-.5.1-.2.3-.5.3-.8.1-.3.1-.7.1-1.2s0-.8-.1-1.1c-.1-.3-.2-.6-.3-.7-.1-.2-.3-.3-.4-.4-.2-.2-.3-.3-.5-.3zM67.4 111.7c0 .2 0 .4-.1.6-.1.2-.2.3-.3.5-.1.1-.3.2-.5.3-.2.1-.4.1-.6.1-.2 0-.4 0-.6-.1-.2-.1-.3-.2-.5-.3-.1-.1-.3-.3-.3-.5-.1-.2-.1-.4-.1-.6 0-.2 0-.4.1-.6.1-.2.2-.3.3-.5.1-.1.3-.2.5-.3.2-.1.4-.1.6-.1.2 0 .4 0 .6.1.2.1.4.2.5.3.1.1.3.3.3.5.1.2.1.4.1.6zm-.3 2.3v8.6h-2.6V114h2.6zM75.6 115.1c0 .2 0 .3-.1.5s-.1.3-.2.4l-3.6 4.7h3.9v1.9h-6.8v-1c0-.1 0-.2.1-.4s.1-.3.2-.5l3.6-4.8H69V114h6.7v1.1zM83.6 115.1c0 .2 0 .3-.1.5s-.1.3-.2.4l-3.6 4.7h3.9v1.9h-6.8v-1c0-.1 0-.2.1-.4s.1-.3.2-.5l3.6-4.8H77V114h6.7v1.1zM91 122.6c-.2 0-.4 0-.6-.1-.1-.1-.2-.2-.3-.4l-.2-.5c-.2.2-.4.3-.6.5-.2.1-.4.3-.6.3-.2.1-.4.2-.7.2-.2 0-.5.1-.8.1-.4 0-.8-.1-1.1-.2-.3-.1-.6-.3-.8-.5-.2-.2-.4-.4-.5-.7-.1-.3-.2-.6-.2-1 0-.3.1-.6.2-.9.2-.3.4-.6.8-.9.4-.3.9-.5 1.5-.7.6-.2 1.5-.3 2.5-.3v-.4c0-.5-.1-.9-.3-1.1-.2-.2-.5-.3-.9-.3-.3 0-.6 0-.8.1-.2.1-.4.1-.5.2-.2.1-.3.2-.4.2-.1.1-.3.1-.5.1s-.3 0-.5-.1l-.3-.3-.5-.8c.5-.5 1.1-.8 1.7-1 .6-.2 1.3-.3 2-.3.5 0 1 .1 1.4.3.4.2.8.4 1.1.7.3.3.5.7.7 1.1.2.4.2.9.2 1.4v5.4h-1zm-2.9-1.6c.3 0 .6-.1.9-.2.2-.1.5-.3.8-.6V119c-.5 0-.9 0-1.3.1-.3.1-.6.2-.8.3-.2.1-.3.2-.4.3-.1.1-.1.3-.1.4 0 .3.1.5.2.6.1.3.4.3.7.3z"/></g><path fill="#CCEAF0" d="M95.7 77l-1.4 6.7c-.4-.4-1-.7-1.6-.9-1.7-.4-3.4.7-3.7 2.4-.4 1.7.7 3.4 2.5 3.7 1.7.4 3.4-.7 3.7-2.4l1.3-6.5 3.6 1.8.5-2.4-4.9-2.4z"/></svg>