<svg xmlns="http://www.w3.org/2000/svg" width="42" height="42.001" viewBox="0 0 42.000057 42.000984"><path d="M39.48 21.907a2.194 2.194 0 0 0-3.072.678l-10.06 15.918c-.665 1.052-.368 2.456.665 3.135a2.196 2.196 0 0 0 3.073-.678l10.06-15.917c.664-1.053.367-2.457-.665-3.136zm-4.528-7.89a2.198 2.198 0 0 0-3.074.68L16.834 38.502c-.665 1.052-.368 2.456.664 3.135a2.196 2.196 0 0 0 3.073-.678l15.05-23.81c.67-1.057.37-2.46-.66-3.14zM34.056.363a2.197 2.197 0 0 0-3.074.678L7.308 38.51c-.665 1.052-.368 2.456.665 3.135 1.03.68 2.407.375 3.073-.68L34.72 3.5c.665-1.052.368-2.456-.664-3.135zM10.09 27.4L25.193 3.497c.665-1.052.368-2.456-.664-3.135a2.204 2.204 0 0 0-3.08.678L6.35 24.942c-.664 1.053-.367 2.457.666 3.136a2.198 2.198 0 0 0 3.073-.678zM14.986.362a2.196 2.196 0 0 0-3.073.678L1.853 16.957c-.663 1.053-.366 2.457.666 3.136a2.195 2.195 0 0 0 3.07-.678L15.65 3.497c.666-1.052.37-2.456-.664-3.135z" fill="#fff" fill-rule="evenodd"/></svg>
