<svg width="36" height="42" viewBox="0 0 36 42" xmlns="http://www.w3.org/2000/svg"><g fill="none" fill-rule="evenodd"><path d="M25 25.5c0 .27-.224.5-.5.5H23v-1.5c0-.28-.224-.5-.5-.5h-9c-.276 0-.5.22-.5.5V26h-1.5c-.276 0-.5-.23-.5-.5v-2c0-.28.224-.5.5-.5h13c.276 0 .5.22.5.5v2zM14 25h8v3h-8v-3zm0-10.5c0-.28.224-.5.5-.5h7c.276 0 .5.22.5.5v7c0 .27-.224.5-.5.5h-7c-.276 0-.5-.23-.5-.5v-7zM25 22h-2v-8c0-.55-.448-1-1-1h-8c-.552 0-1 .45-1 1v8h-2c-.552 0-1 .45-1 1v3c0 .55.448 1 1 1h2v1.5c0 .28.224.5.5.5h9c.276 0 .5-.22.5-.5V27h2c.552 0 1-.45 1-1v-3c0-.55-.448-1-1-1z" fill="#fff" class="fill"/></g></svg>
